:SAMPLES-PER-SECOND 30
:FRAME-RANGE 1-2643
:FULLY-SPECIFIED
:DEGREES
1983
root  24.0448 36.5487 78.1041 -166.847 34.6667 -163.812
RightUpLeg  -38.6847 0.466912 -0.256365
RightLeg  45.8281 10.8427 11.4409
RightFoot  -12.8061 0.0119919 7.73617
RightToes  7.56698e-010 0 -3.6325e-017
Spine  17.3595 -6.69255 -3.66095
Spine1  -1.6438 -9.22609 12.0813
HEad  -14.4024 46.3674 -20.3619
LeftShoulder1  2.20319 -3.97089 -23.2136
LeftArm  21.2522 -24.0696 -63.0599
LeftForeArm  34.993 -52.7676 -11.9449
LeftHand  -0.196428 -1.97586 3.27755
RightShoulder  0.552111 -2.12748 34.8675
RightArm  28.9767 -10.7871 9.97498
RightForeArm  -11.6439 19.1544 8.44036
RightHand  -0.136668 2.55381 -2.20312
LeftUpLeg  11.6264 4.83163 -3.28186
LeftLeg  17.2527 -9.92924 -2.97872
LeftFoot  -14.8634 0.652981 18.1492
LeftToes  1.48244e-010 1.61973e-010 3.308e-011
1984
root  25.5755 36.9101 76.5875 -166.295 31.9749 -163.46
RightUpLeg  -36.5852 -4.95382 7.575
RightLeg  27.1014 -8.51736 -4.93061
RightFoot  -3.00886 -0.746476 9.94151
RightToes  7.56698e-010 0 -3.6325e-017
Spine  16.9908 -6.82277 -2.14855
Spine1  -2.01696 -9.2777 12.8842
HEad  -14.0842 47.8845 -20.5014
LeftShoulder1  2.08757 -3.55093 -23.3332
LeftArm  19.1323 -21.8843 -62.0786
LeftForeArm  32.7463 -54.585 -13.0718
LeftHand  -0.119308 -1.37386 2.18712
RightShoulder  0.181328 -3.04003 35.5864
RightArm  31.1793 -11.1627 10.1691
RightForeArm  -15.954 21.7095 6.60123
RightHand  -0.0856531 2.62103 -1.44968
LeftUpLeg  14.3249 5.03977 -0.0180643
LeftLeg  16.4332 -12.6285 -3.7622
LeftFoot  -10.0716 -0.0826322 12.8871
LeftToes  1.48244e-010 1.61973e-010 3.308e-011
1985
root  27.3534 36.576 74.8788 -167.757 30.063 -165.068
RightUpLeg  -33.125 -9.66055 11.3271
RightLeg  16.1338 -1.99014 -0.298125
RightFoot  -3.00114 -1.41476 18.9596
RightToes  7.56698e-010 0 -3.6325e-017
Spine  15.9219 -6.67351 -2.64206
Spine1  -2.08437 -8.89335 12.1956
HEad  -14.4924 49.5628 -21.1886
LeftShoulder1  1.92537 -2.89326 -23.8621
LeftArm  16.5455 -19.3142 -59.1015
LeftForeArm  31.4202 -54.9647 -13.3985
LeftHand  -0.0723751 -1.24256 1.3926
RightShoulder  -0.112913 -3.74093 36.1748
RightArm  29.6923 -11.0009 10.0786
RightForeArm  -15.9977 23.9937 5.90266
RightHand  -0.00698457 2.68314 -0.31082
LeftUpLeg  15.2537 6.17359 1.95044
LeftLeg  22.5096 -14.2195 -6.06619
LeftFoot  -6.57108 -0.197168 5.68017
LeftToes  1.48244e-010 1.61973e-010 3.308e-011
1986
root  28.916 36.1611 73.3443 -169.163 27.8717 -165.52
RightUpLeg  -32.2973 -7.1424 11.5027
RightLeg  17.419 -1.12892 2.15029
RightFoot  8.51148 -0.56164 3.54246
RightToes  7.56698e-010 0 -3.6325e-017
Spine  16.2845 -6.44018 -0.82566
Spine1  -1.33008 -8.54048 11.1684
HEad  -14.4682 51.1632 -21.1819
LeftShoulder1  1.77183 -2.35451 -24.0122
LeftArm  14.3925 -16.9442 -55.7866
LeftForeArm  29.5779 -52.8935 -12.4584
LeftHand  -0.0668493 -1.22776 1.29688
RightShoulder  -0.0850429 -3.67414 36.373
RightArm  27.2745 -10.4423 9.18582
RightForeArm  -13.6886 25.794 6.21267
RightHand  0.0338242 2.7914 0.264554
LeftUpLeg  13.5911 4.86193 3.96557
LeftLeg  32.512 -13.8296 -8.99917
LeftFoot  -0.111956 0.0710816 -0.716367
LeftToes  1.48244e-010 1.61973e-010 3.308e-011
1987
root  30.2893 35.3527 71.98 -170.87 26.9525 -164.063
RightUpLeg  -34.7749 -4.38605 13.6283
RightLeg  32.8208 -3.57097 -2.73485
RightFoot  -0.899498 -0.443396 4.78154
RightToes  7.56698e-010 0 -3.6325e-017
Spine  20.4802 -5.72384 3.22364
Spine1  -4.26448 -6.20709 9.12812
HEad  -16.577 52.361 -23.5884
LeftShoulder1  1.67733 -1.9039 -24.8181
LeftArm  12.3601 -15.8505 -52.5203
LeftForeArm  26.1541 -47.5434 -10.3335
LeftHand  -0.0770785 -1.32824 1.46435
RightShoulder  0.404536 -2.50896 35.7547
RightArm  24.9838 -8.82937 7.99073
RightForeArm  -11.8134 26.7042 6.33924
RightHand  0.010092 2.6677 -0.0639149
LeftUpLeg  9.58647 3.8603 7.44793
LeftLeg  47.4445 -11.8203 -13.0686
LeftFoot  7.91604 1.76635 -10.6734
LeftToes  1.48244e-010 1.61973e-010 3.308e-011
1988
root  31.4136 34.5233 70.8605 -172.095 25.5035 -161.404
RightUpLeg  -34.552 -3.91065 16.4893
RightLeg  42.0097 -4.61718 -4.75473
RightFoot  -7.30526 -0.188673 3.94292
RightToes  7.56698e-010 0 -3.6325e-017
Spine  22.9705 -6.13829 8.66946
Spine1  -2.50317 -4.76085 6.76345
HEad  -21.6177 52.9512 -27.6396
LeftShoulder1  1.61625 -1.57902 -25.6298
LeftArm  8.77846 -15.5791 -48.9911
LeftForeArm  19.5367 -39.2639 -7.92169
LeftHand  -0.130628 -0.487185 2.65238
RightShoulder  2.17662 1.58337 36.9259
RightArm  22.0551 -5.09526 6.15346
RightForeArm  -12.8819 25.0836 6.00976
RightHand  -0.0509532 2.38765 -0.955991
LeftUpLeg  3.73251 1.81216 11.6936
LeftLeg  61.555 -7.07925 -13.367
LeftFoot  13.8364 3.87462 -17.6159
LeftToes  1.48244e-010 1.61973e-010 3.308e-011
1989
root  32.534 34.2061 69.5402 -172.558 22.6283 -161.117
RightUpLeg  -33.9387 -6.68809 17.606
RightLeg  47.0295 -4.32568 -5.32087
RightFoot  -13.0225 -0.0261005 4.23972
RightToes  7.56698e-010 0 -3.6325e-017
Spine  22.4318 -6.02937 10.9404
Spine1  0.27498 -4.28093 6.37911
HEad  -23.9179 51.94 -29.1275
LeftShoulder1  1.58147 -1.40831 -26.0408
LeftArm  7.60323 -14.8776 -46.4622
LeftForeArm  6.04922 -29.1362 -5.99431
LeftHand  -0.127987 1.86091 3.95659
RightShoulder  4.03189 5.98564 36.5644
RightArm  15.9088 -0.763169 6.02027
RightForeArm  -12.9089 21.3354 6.53217
RightHand  -0.108071 1.72334 -1.92167
LeftUpLeg  -5.54784 -2.13901 12.5277
LeftLeg  73.3727 -2.19273 -7.34709
LeftFoot  10.4068 2.50955 -13.3476
LeftToes  1.48244e-010 1.61973e-010 3.308e-011
1990
root  33.5795 34.2897 68.1653 -173.35 21.8651 -161.725
RightUpLeg  -31.2117 -8.24867 17.5287
RightLeg  48.8352 -3.89531 -5.14408
RightFoot  -17.0009 0.0992554 4.33759
RightToes  7.56698e-010 0 -3.6325e-017
Spine  22.8949 -4.94174 12.8579
Spine1  0.108526 -2.35532 4.09801
HEad  -22.8849 50.2602 -27.8523
LeftShoulder1  1.59028 -1.32917 -26.7753
LeftArm  6.40779 -12.6929 -42.8032
LeftForeArm  -4.70498 -19.2795 -7.59111
LeftHand  -0.0462954 4.65393 3.89498
RightShoulder  5.2992 9.10151 36.1032
RightArm  8.14999 2.72031 6.29138
RightForeArm  -13.4249 20.9229 6.72745
RightHand  -0.147365 0.896363 -2.82306
LeftUpLeg  -13.9187 -3.91258 12.3798
LeftLeg  79.7253 -0.702581 -3.05587
LeftFoot  7.01628 1.12792 -7.23916
LeftToes  1.48244e-010 1.61973e-010 3.308e-011
1991
root  34.6292 34.6625 66.6868 -173.998 22.6037 -162.665
RightUpLeg  -27.0008 -8.00637 16.8013
RightLeg  48.1869 -3.70894 -4.81064
RightFoot  -19.8789 0.169537 4.07492
RightToes  7.56698e-010 0 -3.6325e-017
Spine  23.7372 -3.55151 14.4738
Spine1  -0.914818 -0.111063 0.936525
HEad  -21.2236 49.0753 -26.193
LeftShoulder1  1.56937 -1.15032 -27.6144
LeftArm  -9.57869 -8.2638 -36.3076
LeftForeArm  4.82026 -8.6279 -13.7078
LeftHand  -0.0289625 5.24856 2.15746
RightShoulder  6.35514 11.7612 35.6815
RightArm  2.46072 5.76488 7.5525
RightForeArm  -10.5063 23.8795 5.62396
RightHand  -0.207137 1.08715 -3.83215
LeftUpLeg  -21.0282 -4.16615 11.871
LeftLeg  80.5147 -0.317193 -0.46173
LeftFoot  2.76185 0.411598 -3.46301
LeftToes  1.48244e-010 1.61973e-010 3.308e-011
1992
root  35.6618 35.2732 65.133 -174.447 23.0608 -164.425
RightUpLeg  -22.3462 -7.353 15.2824
RightLeg  45.5518 -4.14155 -4.86278
RightFoot  -21.5979 0.231345 4.20782
RightToes  7.56698e-010 0 -3.6325e-017
Spine  23.7918 -2.33813 14.7316
Spine1  -1.46622 1.37546 -2.03201
HEad  -21.0166 48.4355 -25.8866
LeftShoulder1  1.4401 -0.704429 -28.1239
LeftArm  -12.7241 -1.94506 -29.9064
LeftForeArm  7.16628 -2.27776 -15.5412
LeftHand  -0.0268504 4.71034 0.243982
RightShoulder  7.47947 14.4 35.7932
RightArm  -4.09138 8.86219 9.08463
RightForeArm  -0.890962 29.1308 6.37258
RightHand  -0.233216 1.88851 -3.89159
LeftUpLeg  -27.092 -4.29726 10.6811
LeftLeg  76.0023 -0.214062 0.215191
LeftFoot  -0.80329 0.00344141 0.0152892
LeftToes  1.48244e-010 1.61973e-010 3.308e-011
